# xmcd
#
# Track frame offsets: 
#        150
#        14301
#        28453
#        42804
#        59120
#        74180
#        86822
#        100615
#        114548
#        126212
#        140049
#        154823
#        170633
#        182248
#        205827
#        222153
#        237679
#        250594
#        265599
#        279114
#        303013
#        318476
#
# Disc length: 4486 seconds
#
# Revision: 1
# Processed by: cddbd v1.5.2PL0 Copyright (c) Steve Scherf et al.
# Submitted via: ExactAudioCopy v1.1
#
DISCID=4b118416
DTITLE=Various Artist - Complete Motown Singles Volume12A - Disc 70
DYEAR=2013
DGENRE=R&B
TTITLE0=The Temptations - Mother Nature (mono)
TTITLE1=The Temptations - Funky Music Sho Nuff Turns Me On (mono)
TTITLE2=The Temptations - Mother Nature (stereo promo version)
TTITLE3=Bobby Darin - Sail Away (mono)
TTITLE4=Bobby Darin - Hard Headed Woman (mono)
TTITLE5=Suzee Ikeda - I Can't Give Back The Love I Feel For You (mono)
TTITLE6=Suzee Ikeda - Mind, Body And Soul (mono)
TTITLE7=David Ruffin - A Little More Trust (mono)
TTITLE8=David Ruffin - A Day In The Life Of A Working Man (mono)
TTITLE9=David Ruffin - A Little More Trust (stereo promo version)
TTITLE10=Blinky - Money (That's What I Want) (mono)
TTITLE11=Blinky - For Your Precious Love (mono)
TTITLE12=Jr. Walker and The All Stars - Groove Thang (mono)
TTITLE13=Jr. Walker and The All Stars - Me And My Family (mono)
TTITLE14=The Jackson 5 - Lookin' Through The Windows (mono)
TTITLE15=The Jackson 5 - Love Song (mono)
TTITLE16=The Blackberries - Somebody Up There (mono)
TTITLE17=The Blackberries - But I Love You More (mono)
TTITLE18=Syreeta - To Know You Is To Love You (mono)
TTITLE19=Syreeta - Happiness (mono)
TTITLE20=Crystal Mansion - Somebody Oughta' Turn Your Head Around (mon
TTITLE20=o)
TTITLE21=Crystal Mansion - Earth People (mono)
EXTD=
EXTT0=
EXTT1=
EXTT2=
EXTT3=
EXTT4=
EXTT5=
EXTT6=
EXTT7=
EXTT8=
EXTT9=
EXTT10=
EXTT11=
EXTT12=
EXTT13=
EXTT14=
EXTT15=
EXTT16=
EXTT17=
EXTT18=
EXTT19=
EXTT20=
EXTT21=
PLAYORDER=
